<?xml version="1.0" encoding="UTF-8"?><svg version="1.1" width="21px" height="24px" viewBox="0 0 21.0 24.0" xmlns="http://www.w3.org/2000/svg" xmlns:xlink="http://www.w3.org/1999/xlink"><defs><clipPath id="i0"><path d="M5.27779177,11.5928681 C5.52278499,11.5928681 5.75990478,11.6933923 6.21693254,11.9913026 C6.50275798,12.1775194 6.83234531,12.3899201 7.19653935,12.6226454 C7.5105628,12.8229613 7.93646289,13.0106429 8.4619716,13.1803804 C8.9757616,13.3464558 9.49669268,13.4306837 10.011032,13.4306837 C10.5253714,13.4306837 11.0464855,13.3464558 11.5597263,13.1803804 C12.0857843,13.0104598 12.5116843,12.8227782 12.826074,12.6224623 C13.193747,12.3875398 13.5231512,12.175139 13.8047653,11.9914856 C14.2623424,11.6935754 14.499279,11.5930512 14.7442723,11.5930512 C15.3681079,11.5930512 15.9512943,11.6985191 16.4775355,11.9067085 C17.0056075,12.1159964 17.4622691,12.4029205 17.8352521,12.7597904 C18.1919388,13.1009132 18.5098075,13.5154608 18.7804354,13.9915314 C19.0411755,14.4502072 19.2521114,14.9288412 19.4072006,15.4135177 C19.5573459,15.8824472 19.6827722,16.3955048 19.7801836,16.9382252 C19.8766794,17.4769175 19.9422307,17.9870454 19.9746401,18.4546932 C20.0066833,18.911721 20.0231627,19.3887071 20.0231627,19.8722849 C20.0231627,21.1256323 19.6249113,22.1400289 18.8393948,22.8874597 C18.0635829,23.6257353 17.0376508,24 15.7896134,24 L4.23354923,24 C2.98551188,24 1.95921357,23.6255522 1.18358472,22.8874597 C0.398251368,22.1394795 0,21.1252661 0,19.872468 C0,19.3910874 0.0161131583,18.9144675 0.0479732903,18.4552425 C0.0803826993,17.9864961 0.145933934,17.476185 0.242429791,16.9382252 C0.339841157,16.3955048 0.465267435,15.8826303 0.615229681,15.4137008 C0.770501934,14.9286581 0.981437825,14.4502072 1.24199493,13.9915314 C1.51225654,13.515644 1.8303083,13.1012795 2.18681194,12.7599735 C2.56016116,12.4027374 3.01700578,12.1158133 3.54471174,11.9068916 C4.07076973,11.6985191 4.65377309,11.5928681 5.27779177,11.5928681 Z M9.86015425,0 C11.4482159,0 12.8233275,0.569636779 13.9472203,1.69316336 C15.071113,2.81723923 15.6407498,4.19235083 15.6407498,5.78022934 C15.6407498,7.36865718 15.071113,8.74358564 13.9474034,9.86729532 C12.8236937,10.9911881 11.448399,11.5608249 9.86015425,11.5608249 C8.27227574,11.5608249 6.89716418,10.991005 5.77327136,9.86747841 C4.64937859,8.74376873 4.07955872,7.36865718 4.07955872,5.78022934 C4.07955872,4.19216774 4.64937859,2.81705613 5.77308827,1.69334646 C6.89679795,0.569636779 8.27172646,0 9.86015425,0 Z"></path></clipPath></defs><g clip-path="url(#i0)"><polygon points="0,0 20.0231627,0 20.0231627,24 0,24 0,0" stroke="none" fill="#C7CED6"></polygon></g></svg>