<?xml version="1.0" encoding="UTF-8"?><svg version="1.1" width="20px" height="20px" viewBox="0 0 20.0 20.0" xmlns="http://www.w3.org/2000/svg" xmlns:xlink="http://www.w3.org/1999/xlink"><defs><clipPath id="i0"><path d="M11.6046484,0 C11.9282422,0 12.1905859,0.26234375 12.1905859,0.5859375 L12.1905859,1.89371094 C12.8880859,2.08148437 13.5550781,2.35804687 14.1824219,2.71957031 L15.1077734,1.79425781 C15.3366016,1.56542969 15.7076172,1.56542969 15.9364062,1.79425781 L18.2057422,4.06359375 C18.4345703,4.29242187 18.4345703,4.66339844 18.2057422,4.89222656 L17.2804297,5.81753906 C17.6419531,6.44488281 17.9185156,7.111875 18.1062891,7.809375 L19.4140625,7.809375 C19.7376563,7.809375 20,8.07171875 20,8.3953125 L20,11.6046484 C20,11.9282422 19.7376563,12.1905859 19.4140625,12.1905859 L18.10625,12.1905859 C17.9184766,12.8880859 17.6419141,13.5550781 17.2803906,14.1824219 L18.2057031,15.1077344 C18.4345312,15.3365625 18.4345312,15.7075391 18.2057031,15.9363672 L15.9363672,18.2057031 C15.7075391,18.4345312 15.3365234,18.4345312 15.1077344,18.2057031 L14.1824219,17.2803906 C13.5550391,17.6419922 12.888125,17.9185156 12.1905859,18.1062891 L12.1905859,19.4140625 C12.1905859,19.7376563 11.9282422,20 11.6046484,20 L8.3953125,20 C8.07171875,20 7.809375,19.7376563 7.809375,19.4140625 L7.809375,18.1062891 C7.11179687,17.9184766 6.44492187,17.6419531 5.81753906,17.2803906 L4.89222656,18.2057031 C4.66339844,18.4345312 4.29238281,18.4345312 4.06359375,18.2057031 L1.79425781,15.9363672 C1.56542969,15.7075391 1.56542969,15.3365625 1.79425781,15.1077344 L2.71957031,14.1824219 C2.35804687,13.5550781 2.08148438,12.8880469 1.89371094,12.1905859 L0.5859375,12.1905859 C0.26234375,12.1905859 0,11.9282422 0,11.6046484 L0,8.3953125 C0,8.07171875 0.26234375,7.809375 0.5859375,7.809375 L1.89371094,7.809375 C2.08148437,7.111875 2.35804687,6.44488281 2.71957031,5.81753906 L1.79425781,4.89222656 C1.56542969,4.66339844 1.56542969,4.29242187 1.79425781,4.06359375 L4.06359375,1.79425781 C4.29242187,1.56542969 4.6634375,1.56542969 4.89222656,1.79425781 L5.81753906,2.71957031 C6.44488281,2.35804687 7.11191406,2.08148438 7.809375,1.89371094 L7.809375,0.5859375 C7.809375,0.26234375 8.07171875,0 8.3953125,0 L11.6046484,0 Z M10,4.296875 C6.85527344,4.296875 4.296875,6.85527344 4.296875,10 C4.296875,13.1447266 6.85527344,15.703125 10,15.703125 C13.1447266,15.703125 15.703125,13.1447266 15.703125,10 C15.703125,6.85527344 13.1447266,4.296875 10,4.296875 Z M10,5.46875 C12.4985156,5.46875 14.53125,7.50148438 14.53125,10 C14.53125,12.4985156 12.4985156,14.53125 10,14.53125 C7.50148438,14.53125 5.46875,12.4985156 5.46875,10 C5.46875,7.50148438 7.50148438,5.46875 10,5.46875 Z M8.2803125,10.0359375 L7.21261719,11.2126953 C7.00996094,11.4360547 7.00996094,11.7767969 7.21261719,12.0001562 L8.2803125,13.1769141 C8.39597656,13.3043359 8.55488281,13.3691016 8.71441406,13.3691016 C8.85484375,13.3691016 8.99574219,13.3189063 9.10796875,13.2171094 C9.34761719,12.9996875 9.36558594,12.6291016 9.14816406,12.3894531 L8.96933594,12.1923828 L12.3535156,12.1923828 C12.6771094,12.1923828 12.9394531,11.93 12.9394531,11.6064063 C12.9394531,11.2828125 12.6771094,11.0204688 12.3535156,11.0204688 L8.96933594,11.0204688 L9.14816406,10.8233984 C9.365625,10.58375 9.34761719,10.2132031 9.10796875,9.99574219 C8.86835938,9.77828125 8.49777344,9.79628906 8.2803125,10.0359375 Z M10.8920313,6.78289063 C10.6523828,7.0003125 10.6344141,7.37089844 10.8518359,7.61054688 L11.0306641,7.80761719 L7.64648438,7.80761719 C7.32289063,7.80761719 7.06054688,8.07 7.06054688,8.39359375 C7.06054688,8.7171875 7.32289063,8.97953125 7.64648438,8.97953125 L11.0306641,8.97953125 L10.8518359,9.17660156 C10.634375,9.41625 10.6523828,9.78679687 10.8920313,10.0042578 C11.0042188,10.1060547 11.1451172,10.15625 11.2855859,10.15625 C11.4451172,10.15625 11.6040625,10.0915234 11.7196875,9.9640625 L12.7873828,8.78730469 C12.9900391,8.56394531 12.9900391,8.22320313 12.7873828,7.99984375 L11.7196875,6.82308594 C11.5022266,6.5834375 11.1317188,6.56542969 10.8920313,6.78289063 Z"></path></clipPath></defs><g transform=""><g clip-path="url(#i0)"><polygon points="0,0 20,0 20,20 0,20 0,0" stroke="none" fill="#C7CED6"></polygon></g></g></svg>