<?xml version="1.0" encoding="UTF-8"?><svg version="1.1" width="20px" height="15px" viewBox="0 0 20.0 15.0" xmlns="http://www.w3.org/2000/svg" xmlns:xlink="http://www.w3.org/1999/xlink"><defs><clipPath id="i0"><path d="M18.3090844,3.9008316e-06 C18.7578371,-0.000960352727 19.1884889,0.176877421 19.5058057,0.494194259 C19.8231226,0.811511098 20.0009604,1.24216287 20.0000039,1.6909156 L20.0000039,12.8545432 C20.0009604,13.303296 19.8231226,13.7339477 19.5058057,14.0512646 C19.1884889,14.3685814 18.7578371,14.5464192 18.3090844,14.5454549 L1.6909156,14.5454549 C1.24216287,14.5464192 0.811511098,14.3685814 0.494194259,14.0512646 C0.176877421,13.7339477 -0.000960352727,13.303296 3.9008316e-06,12.8545432 L3.9008316e-06,1.6909156 C-0.000960352727,1.24216287 0.176877421,0.811511098 0.494194259,0.494194259 C0.811511098,0.176877421 1.24216287,-0.000960352727 1.6909156,3.9008316e-06 Z M16.3636314,10 L3.63636862,10 C3.13429197,10 2.72727842,10.4070135 2.72727842,10.9090902 C2.72727842,11.4111668 3.13429197,11.8181804 3.63636862,11.8181804 L16.3636314,11.8181804 C16.865708,11.8181804 17.2727216,11.4111668 17.2727216,10.9090902 C17.2727216,10.4070135 16.865708,10 16.3636314,10 Z M17.5545395,1.81818823 L15.1727232,1.81818823 C14.8264979,1.81868892 14.5459517,2.09923518 14.545451,2.44546046 L14.545451,4.82727678 C14.5459517,5.17350207 14.8264979,5.45404833 15.1727232,5.45454902 L17.5545395,5.45454902 C17.9007648,5.45404833 18.1813111,5.17350207 18.1818118,4.82727678 L18.1818118,2.44546046 C18.1813111,2.09923518 17.9007648,1.81868892 17.5545395,1.81818823 Z"></path></clipPath></defs><g transform=""><g clip-path="url(#i0)"><polygon points="2.22044605e-16,2.22044605e-16 20.0000077,2.22044605e-16 20.0000077,14.5454588 2.22044605e-16,14.5454588 2.22044605e-16,2.22044605e-16" stroke="none" fill="#C7CED6"></polygon></g></g></svg>