<?xml version="1.0" encoding="UTF-8"?>
<svg width="24px" height="24px" viewBox="0 0 24 24" version="1.1" xmlns="http://www.w3.org/2000/svg" xmlns:xlink="http://www.w3.org/1999/xlink">
    <title>Icon/Dashboard/ic-contacts-active</title>
    <g id="Icon/Dashboard/ic-contacts-active" stroke="none" stroke-width="1" fill="none" fill-rule="evenodd">
        <path d="M20.097666,3.00849533 C20.3226702,3.19318761 20.5290073,3.39953585 20.7136773,3.62458443 C21.653005,4.76910547 21.7177862,6.43121736 21.7222538,9.60301978 L21.7222538,14.3966163 C21.7177862,17.5684315 21.653005,19.2305085 20.7136773,20.3750812 C20.5290073,20.6000854 20.3226702,20.8064225 20.097666,20.9910926 C18.8683101,22 17.0419432,22 13.3890983,22 C9.73625332,22 7.9098642,22 6.68056382,20.9910926 C6.45551524,20.8064225 6.249167,20.6000854 6.06447472,20.3750812 C5.12518848,19.2305085 5.06041012,17.5684315 5.05594265,14.3966163 L5.05594265,9.60301978 C5.06041012,6.43121736 5.12518848,4.76910547 6.06447472,3.62458443 C6.249167,3.39953585 6.45551524,3.19318761 6.68056382,3.00849533 C7.78269519,2.10399748 9.36476948,2.01042873 12.3127334,2.00074921 L14.4654625,2.00074921 C17.4134233,2.01042873 18.9954848,2.10399748 20.097666,3.00849533 Z M3.82622246,17.8332567 C4.00150346,17.8332567 4.14639501,17.969037 4.16149529,18.1437069 C4.19088472,18.483602 4.22922987,18.79783 4.27926412,19.0898354 C4.31543145,19.3008393 4.15665076,19.499954 3.94253571,19.499954 L3.94253571,19.499954 L2.83334865,19.499954 C2.37310686,19.499954 2,19.1268361 2,18.6666054 C2,18.2063747 2.37310686,17.8332567 2.83334865,17.8332567 L2.83334865,17.8332567 Z M13.3889871,12.483714 C11.0878337,12.483714 9.22235499,13.7934047 9.22235499,14.9439814 C9.22235499,16.0946692 11.0878337,16.6504572 13.3889871,16.6504572 C15.6901406,16.6504572 17.5558415,16.0946692 17.5558415,14.9439814 C17.5558415,13.7934047 15.6901406,12.483714 13.3889871,12.483714 Z M3.73165405,11.1664675 C3.91574633,11.1664675 4.06499352,11.3156925 4.06499352,11.499807 L4.06499352,11.499807 L4.06499352,12.4998254 C4.06499352,12.6839399 3.91574633,12.8331648 3.73165405,12.8331648 L3.73165405,12.8331648 L2.83334865,12.8331648 C2.37310686,12.8331648 2,12.4600469 2,11.9998162 C2,11.5395855 2.37310686,11.1664675 2.83334865,11.1664675 L2.83334865,11.1664675 Z M13.3890983,7.45227702 C12.2385215,7.45227702 11.3057266,8.3850275 11.3057266,9.53564865 C11.3057266,10.6862365 12.2385215,11.6190314 13.3890983,11.6190314 C14.539675,11.6190314 15.4724699,10.6862365 15.4724699,9.53564865 C15.4724699,8.3850275 14.539675,7.45227702 13.3890983,7.45227702 Z M3.94253571,4.4996783 C4.15665076,4.4996783 4.31543145,4.69877084 4.27926412,4.90981917 C4.22922987,5.20175787 4.19088472,5.51603031 4.16149529,5.85592545 C4.14639501,6.03055088 4.00150346,6.1663756 3.82622246,6.1663756 L3.82622246,6.1663756 L2.83334865,6.1663756 C2.37310686,6.1663756 2,5.79326874 2,5.33302695 C2,4.87278515 2.37310686,4.4996783 2.83334865,4.4996783 L2.83334865,4.4996783 Z" id="Combined-Shape" fill="#92CDD2"></path>
    </g>
</svg>