<?xml version="1.0" encoding="UTF-8"?><svg version="1.1" width="20px" height="20px" viewBox="0 0 20.0 20.0" xmlns="http://www.w3.org/2000/svg" xmlns:xlink="http://www.w3.org/1999/xlink"><defs><clipPath id="i0"><path d="M15.9567529,5.75289655 C17.5693743,6.54279636 18.8435803,7.92799231 19.5038763,9.59526704 C20.2554594,11.493185 20.0899646,13.3855584 19.4295695,15.2735754 C18.8974416,16.7910484 18.99259,18.4299568 19.6792721,19.8604992 C18.6122935,20.1916373 17.4120478,19.9270833 16.5892272,19.13253 C16.4605146,19.0082233 16.2913069,18.9429758 16.119822,18.9429758 C16.0211588,18.9429758 15.9217035,18.9645105 15.8288323,19.0089163 C14.7975467,19.5013908 13.6901722,19.7430241 12.5368571,19.7252024 C9.90042536,19.6860935 7.50122103,18.2338185 6.22909422,16.0039703 C6.65236091,16.0597623 7.08047908,16.0850593 7.51052794,16.0783267 C9.82522745,16.0439208 11.9889866,15.1237736 13.6031426,13.4873404 C15.2171006,11.8511053 16.1060101,9.67695009 16.1059606,7.36531988 C16.1059606,6.82071673 16.0559607,6.28180665 15.9567529,5.75289655 Z M7.28886383,0.000579111729 L7.52958732,0.00146950872 C11.5140863,0.0815683988 14.7557151,3.38492979 14.7557151,7.36527038 C14.7557151,11.4344227 11.5644328,14.6693189 7.49032995,14.7298138 C6.33706435,14.7483286 5.22954126,14.5059528 4.19840418,14.0134783 C3.94404813,13.8918943 3.64073175,13.9412011 3.43800928,14.1370424 C2.61513922,14.9316452 1.41504201,15.1960507 0.347964398,14.8650611 C1.03469604,13.4344692 1.12979491,11.7956103 0.597666995,10.2781373 C0.592914527,10.264474 0.58766701,10.2510086 0.582023454,10.2376918 C0.193410174,9.32264369 -0.00238161247,8.35016989 2.18610228e-05,7.34715159 C0.00955595507,3.40280494 3.16087147,0.181679155 7.04986114,0.00742121589 L7.28886383,0.000579111729 Z M3.44246472,6.33240063 C2.85251511,6.33240063 2.3742485,6.80987517 2.3742485,7.39883468 C2.3742485,7.9877942 2.85251511,8.46526873 3.44246472,8.46526873 C4.03241433,8.46526873 4.51063144,7.9877942 4.51068094,7.39883468 C4.51068094,6.80987517 4.03241433,6.33240063 3.44246472,6.33240063 Z M7.37790438,6.33240063 C6.78795477,6.33240063 6.30968815,6.80987517 6.30968815,7.39883468 C6.30968815,7.9877942 6.78795477,8.46526873 7.37790438,8.46526873 C7.96785399,8.46526873 8.4461206,7.9877942 8.4461206,7.39883468 C8.4461206,6.80987517 7.96785399,6.33240063 7.37790438,6.33240063 Z M11.3133935,6.33240063 C10.7234439,6.33240063 10.2451773,6.80987517 10.2451773,7.39883468 C10.2451773,7.9877942 10.7234439,8.46526873 11.3133935,8.46526873 C11.9033432,8.46526873 12.3816098,7.9877942 12.3816098,7.39883468 C12.3816098,6.80987517 11.9033432,6.33240063 11.3133935,6.33240063 Z"></path></clipPath></defs><g transform=""><g clip-path="url(#i0)"><polygon points="1.11022302e-16,8.8817842e-16 20.0000011,8.8817842e-16 20.0000011,20 1.11022302e-16,20 1.11022302e-16,8.8817842e-16" stroke="none" fill="#C7CED6"></polygon></g></g></svg>