<?xml version="1.0" encoding="UTF-8"?>
<svg width="24px" height="24px" viewBox="0 0 24 24" version="1.1" xmlns="http://www.w3.org/2000/svg" xmlns:xlink="http://www.w3.org/1999/xlink">
    <title>Icon/Dashboard/ic-home-active</title>
    <g id="Icon/Dashboard/ic-home-active" stroke="none" stroke-width="1" fill="none" fill-rule="evenodd">
        <path d="M8.14285714,12.8571429 C9.79971139,12.8571429 11.1428571,14.2002886 11.1428571,15.8571429 L11.1428571,19 C11.1428571,20.6568542 9.79971139,22 8.14285714,22 L5,22 C3.34314575,22 2,20.6568542 2,19 L2,15.8571429 C2,14.2002886 3.34314575,12.8571429 5,12.8571429 L8.14285714,12.8571429 Z M19,12.8571429 C20.6568542,12.8571429 22,14.2002886 22,15.8571429 L22,19 C22,20.6568542 20.6568542,22 19,22 L15.8571429,22 C14.2002886,22 12.8571429,20.6568542 12.8571429,19 L12.8571429,15.8571429 C12.8571429,14.2002886 14.2002886,12.8571429 15.8571429,12.8571429 L19,12.8571429 Z M8.14285714,2 C9.79971139,2 11.1428571,3.34314575 11.1428571,5 L11.1428571,8.14285714 C11.1428571,9.79971139 9.79971139,11.1428571 8.14285714,11.1428571 L5,11.1428571 C3.34314575,11.1428571 2,9.79971139 2,8.14285714 L2,5 C2,3.34314575 3.34314575,2 5,2 L8.14285714,2 Z M19,2 C20.6568542,2 22,3.34314575 22,5 L22,8.14285714 C22,9.79971139 20.6568542,11.1428571 19,11.1428571 L15.8571429,11.1428571 C14.2002886,11.1428571 12.8571429,9.79971139 12.8571429,8.14285714 L12.8571429,5 C12.8571429,3.34314575 14.2002886,2 15.8571429,2 L19,2 Z" id="Combined-Shape" fill="#92CDD2"></path>
    </g>
</svg>