<?xml version="1.0" encoding="UTF-8"?>
<svg width="14px" height="14px" viewBox="0 0 14 14" version="1.1" xmlns="http://www.w3.org/2000/svg" xmlns:xlink="http://www.w3.org/1999/xlink">
    <title>Icon/UI/ic-more-info</title>
    <defs>
        <path d="M8,1.33333333 C11.6818983,1.33333333 14.6666667,4.31810167 14.6666667,8 C14.6666667,11.6818983 11.6818983,14.6666667 8,14.6666667 C4.31810167,14.6666667 1.33333333,11.6818983 1.33333333,8 C1.33333333,4.31810167 4.31810167,1.33333333 8,1.33333333 Z M8,7 C7.63181017,7 7.33333333,7.29847683 7.33333333,7.66666667 L7.33333333,7.66666667 L7.33333333,10.6666667 C7.33333333,11.0348565 7.63181017,11.3333333 8,11.3333333 C8.36818983,11.3333333 8.66666667,11.0348565 8.66666667,10.6666667 L8.66666667,10.6666667 L8.66666667,7.66666667 C8.66666667,7.29847683 8.36818983,7 8,7 Z M8,4.66666667 C7.63181017,4.66666667 7.33333333,4.9651435 7.33333333,5.33333333 C7.33333333,5.70152317 7.63181017,6 8,6 C8.36818983,6 8.66666667,5.70152317 8.66666667,5.33333333 C8.66666667,4.9651435 8.36818983,4.66666667 8,4.66666667 Z" id="path-1"></path>
    </defs>
    <g id="Symbols" stroke="none" stroke-width="1" fill="none" fill-rule="evenodd">
        <g id="Atom/List/My-Textwords-Copy-6" transform="translate(-95.000000, -19.000000)">
            <g id="Icon-/-Line-/-Info" transform="translate(94.000000, 18.000000)">
                <mask id="mask-2" fill="white">
                    <use xlink:href="#path-1"></use>
                </mask>
                <use id="Mask" fill-opacity="0" fill="#051033" xlink:href="#path-1"></use>
                <g id="Group" mask="url(#mask-2)" fill="#FFCB47">
                    <g id="↳🎨-Icon-Color">
                        <polygon id="Black-/-Black-800" points="0 0 16 0 16 16 0 16"></polygon>
                    </g>
                </g>
            </g>
        </g>
    </g>
</svg>