<?xml version="1.0" encoding="UTF-8"?>
<svg width="18px" height="15px" viewBox="0 0 18 15" version="1.1" xmlns="http://www.w3.org/2000/svg" xmlns:xlink="http://www.w3.org/1999/xlink">
    <title>Icon/UI/ic-send-message</title>
    <g id="Symbols" stroke="none" stroke-width="1" fill="none" fill-rule="evenodd">
        <g id="Atom/List/My-Textwords-Copy-6" transform="translate(-776.000000, -17.000000)" fill="#FFFFFF">
            <g id="💚-Icon" transform="translate(775.000000, 14.000000)">
                <path d="M3.9805839,4.09954716 L16.2540024,3.36286038 C16.6156916,3.34107966 16.9606761,3.32030491 17.2308124,3.34352537 C17.5073169,3.36729959 17.9489302,3.4550962 18.1971936,3.88509011 C18.4454569,4.31508402 18.300652,4.74144166 18.1829807,4.99282442 C18.0680782,5.23838361 17.8775891,5.52673822 17.677871,5.8290934 L10.9032358,16.0897886 C10.6307922,16.5024225 10.3874203,16.8711259 10.1688747,17.121235 C9.97635528,17.3416264 9.56879736,17.7491843 8.98579387,17.6071482 C8.40279039,17.4650197 8.22845232,16.9155179 8.15895705,16.6313533 C8.08004808,16.3087033 8.03362561,15.8693972 7.98166566,15.3776697 L7.51378622,10.9541527 L12.0117453,8.25546586 C12.3395636,8.05870103 12.4457908,7.63356164 12.2491183,7.30575254 C12.0524457,6.97795267 11.6272602,6.87165167 11.2994419,7.06833344 L6.88808882,9.71514342 L3.13653477,6.98571436 C2.73668317,6.69486788 2.3794424,6.43501279 2.13951298,6.20535538 C1.92812923,6.00301616 1.53943563,5.57735071 1.70787629,5.0014075 C1.87630772,4.42546429 2.43310051,4.27630326 2.72019073,4.21974722 C3.04605248,4.15554946 3.48701982,4.12912649 3.9805839,4.09954716 Z" id="Path"></path>
            </g>
        </g>
    </g>
</svg>