<?xml version="1.0" encoding="UTF-8"?>
<svg width="24px" height="24px" viewBox="0 0 24 24" version="1.1" xmlns="http://www.w3.org/2000/svg" xmlns:xlink="http://www.w3.org/1999/xlink">
    <title>Icon/UI/ic-settings</title>
    <g id="Symbols" stroke="none" stroke-width="1" fill="none" fill-rule="evenodd">
        <g id="Atom/List/My-Textwords-Copy-6" transform="translate(-1015.000000, -12.000000)" fill="#6F7072">
            <g id="Icon/UI/ic-settings" transform="translate(1015.000000, 12.000000)">
                <path d="M8.67409884,2.63659491 C9.54676245,-0.878864971 14.4532952,-0.878864971 15.3258705,2.63659491 C15.5606685,3.582562 16.5790935,4.08181099 17.4519212,3.67889004 C20.6959431,2.18155407 23.7551295,6.08664163 21.5993033,8.97300232 C21.0191846,9.74968892 21.2706367,10.8715382 22.124413,11.3150325 C25.2970241,12.963398 24.2051694,17.8328449 20.6442144,17.9167145 C19.6859713,17.939191 18.9813251,18.838895 19.1729737,19.7948545 C19.8850638,23.3475612 15.4644026,25.5148138 13.1798854,22.7328599 C12.5651967,21.9843267 11.434861,21.9843267 10.8200461,22.7328599 C8.53552893,25.5148138 4.11490555,23.3475612 4.82704609,19.7948545 C5.01868209,18.838895 4.31393497,17.939191 3.35572971,17.9167145 C-0.205200098,17.8328449 -1.29699164,12.963398 1.8755816,11.3150325 C2.72928222,10.8715382 2.98079738,9.74970177 2.40069126,8.97300232 C0.244827203,6.08664163 3.30398837,2.18155407 6.54798511,3.67889004 C7.42091367,4.08181099 8.43928827,3.582562 8.67409884,2.63659491 Z M12.0000919,16.2885137 C14.0905633,16.2885137 15.7851207,14.563471 15.7851207,12.4353919 C15.7851207,10.3074411 14.0905633,8.58229577 12.0000919,8.58229577 C9.90962054,8.58229577 8.21506317,10.3074411 8.21506317,12.4353919 C8.21506317,14.563471 9.90962054,16.2885137 12.0000919,16.2885137 Z"></path>
            </g>
        </g>
    </g>
</svg>