<?xml version="1.0" encoding="UTF-8"?>
<svg width="24px" height="24px" viewBox="0 0 24 24" version="1.1" xmlns="http://www.w3.org/2000/svg" xmlns:xlink="http://www.w3.org/1999/xlink">
    <title>Icon/Dashboard/ic-inbox-active</title>
    <g id="Icon/Dashboard/ic-inbox-active" stroke="none" stroke-width="1" fill="none" fill-rule="evenodd">
        <path d="M3.30174444,5.30174444 C2,6.6035 2,8.69862222 2,12.8888889 L2,17.8314444 C2,18.9164444 2,19.459 2.27696667,19.7737778 C2.39993333,19.9135556 2.55602222,20.0201111 2.73091111,20.0837778 C3.12486667,20.2272222 3.63021111,20.0298889 4.64091111,19.6351111 C5.2182,19.4095556 5.50685556,19.2967778 5.80626667,19.2254444 C5.94436667,19.1924444 6.08395556,19.1662222 6.22456667,19.1465556 C6.52943333,19.1042222 6.83932222,19.1042222 7.4591,19.1042222 L14.4478889,19.1042222 C17.3543333,19.1042222 18.8075556,19.1042222 19.8754444,18.4506667 C20.4752222,18.0835556 20.9794444,17.5794444 21.3464444,16.9796667 C22,15.9116667 22,14.4585556 22,11.5521111 C22,8.64566667 22,7.19245556 21.3464444,6.12455556 C20.9794444,5.52473333 20.4752222,5.02057778 19.8754444,4.65351111 C18.8075556,4 17.3543333,4 14.4478889,4 L10.8888889,4 C6.69862222,4 4.6035,4 3.30174444,5.30174444 Z M7.55555556,11.7777778 C7.55555556,12.3914444 7.05808889,12.8888889 6.44444444,12.8888889 C5.8308,12.8888889 5.33333333,12.3914444 5.33333333,11.7777778 C5.33333333,11.1641111 5.8308,10.6666667 6.44444444,10.6666667 C7.05808889,10.6666667 7.55555556,11.1641111 7.55555556,11.7777778 Z M13.1111111,11.7777778 C13.1111111,12.3914444 12.6136667,12.8888889 12,12.8888889 C11.3863333,12.8888889 10.8888889,12.3914444 10.8888889,11.7777778 C10.8888889,11.1641111 11.3863333,10.6666667 12,10.6666667 C12.6136667,10.6666667 13.1111111,11.1641111 13.1111111,11.7777778 Z M17.5555556,12.8888889 C18.1692222,12.8888889 18.6666667,12.3914444 18.6666667,11.7777778 C18.6666667,11.1641111 18.1692222,10.6666667 17.5555556,10.6666667 C16.9418889,10.6666667 16.4444444,11.1641111 16.4444444,11.7777778 C16.4444444,12.3914444 16.9418889,12.8888889 17.5555556,12.8888889 Z" id="Shape" fill="#92CDD2"></path>
    </g>
</svg>