<?xml version="1.0" encoding="UTF-8"?><svg version="1.1" width="16px" height="20px" viewBox="0 0 16.0 20.0" xmlns="http://www.w3.org/2000/svg" xmlns:xlink="http://www.w3.org/1999/xlink"><defs><clipPath id="i0"><path d="M4.62979088,0.216992549 C4.95267958,-0.0722835748 5.44150375,-0.0722835748 5.76439245,0.216992549 L7.54826976,1.81228963 C7.58415153,1.84434212 7.63837603,1.84434212 7.67425781,1.81228963 L9.45794602,0.216992549 C9.78083472,-0.0723308498 10.2696589,-0.0723308498 10.5925476,0.216992549 L12.3778432,1.81375515 C12.4133467,1.8457131 12.467193,1.8459022 12.5028857,1.81413335 L13.8150051,0.652348625 C14.063672,0.428264816 14.4219224,0.373756666 14.7259484,0.513832684 C15.0317235,0.649890322 15.2270641,0.955050868 15.2226945,1.28971105 L15.2226945,18.7102889 C15.224133,18.9191502 15.1482092,19.1211565 15.0095042,19.2772588 C14.6998053,19.6258179 14.1662116,19.6573031 13.8176525,19.3476041 L12.5043512,18.1858666 C12.4684222,18.1540978 12.4144341,18.1542396 12.3786941,18.1861976 L10.5930676,19.7829602 C10.2701789,20.0721417 9.78140202,20.0721417 9.45846605,19.7829602 L7.67458873,18.1877104 C7.63870696,18.1556579 7.58448246,18.1556579 7.54860069,18.1877104 L5.76472337,19.7830075 C5.44183468,20.0723308 4.9530105,20.0723308 4.63012181,19.7830075 L2.84482624,18.1862448 C2.80932267,18.1542869 2.75547637,18.1540978 2.7197837,18.1858666 L1.40766426,19.3476514 C1.2513729,19.4866873 1.04913017,19.5628947 0.839938003,19.5614765 C0.372954908,19.5583563 -0.00307096054,19.177272 2.4215502e-05,18.7102889 L2.4215502e-05,1.28971105 C-0.00155815845,1.08066072 0.0744601465,0.878417987 0.213401563,0.722173897 C0.523242341,0.373756666 1.05688328,0.342507848 1.40530051,0.652348625 L2.71860182,1.81408608 C2.75453087,1.84585492 2.80851899,1.8457131 2.84425894,1.81375515 Z M12.09268,12.4583034 L3.12998944,12.4583034 C2.9211282,12.4583034 2.75178892,12.6276427 2.75178892,12.8365039 C2.75178892,13.0453652 2.9211282,13.2147044 3.12998944,13.2147044 L12.09268,13.2147044 C12.3015412,13.2147044 12.4708805,13.0453652 12.4708805,12.8365039 C12.4708805,12.6276427 12.3015412,12.4583034 12.09268,12.4583034 Z M12.09268,9.62179948 L3.12998944,9.62179948 C2.9211282,9.62179948 2.75178892,9.79113876 2.75178892,10 C2.75178892,10.2088612 2.9211282,10.3782005 3.12998944,10.3782005 L12.09268,10.3782005 C12.3015412,10.3782005 12.4708805,10.2088612 12.4708805,10 C12.4708805,9.79113876 12.3015412,9.62179948 12.09268,9.62179948 Z M7.83792409,6.78529556 L3.12998944,6.78529556 C2.9211282,6.78529556 2.75178892,6.95463485 2.75178892,7.16349609 C2.75178892,7.37235732 2.9211282,7.54169661 3.12998944,7.54169661 L7.83792409,7.54169661 C8.04678532,7.54169661 8.21612461,7.37235732 8.21612461,7.16349609 C8.21612461,6.95463485 8.04678532,6.78529556 7.83792409,6.78529556 Z"></path></clipPath></defs><g transform=""><g clip-path="url(#i0)"><polygon points="-6.38378239e-16,-2.77555756e-17 15.2227663,-2.77555756e-17 15.2227663,20 -6.38378239e-16,20 -6.38378239e-16,-2.77555756e-17" stroke="none" fill="#C7CED6"></polygon></g></g></svg>