<?xml version="1.0" encoding="UTF-8"?><svg version="1.1" width="20px" height="16px" viewBox="0 0 20.0 16.0" xmlns="http://www.w3.org/2000/svg" xmlns:xlink="http://www.w3.org/1999/xlink"><defs><clipPath id="i0"><path d="M7.89601049,0 C8.00854682,0 8.10589028,0.0392101867 8.18817735,0.117370603 C8.27037344,0.195877629 8.31153972,0.288465661 8.31153972,0.395654613 C8.31153972,0.428799135 8.31586104,0.511248843 8.3244582,0.643133714 C8.33319182,0.775061911 8.33528425,0.884417172 8.33100841,0.970939539 C8.3266416,1.05754856 8.31358666,1.15433923 8.29193456,1.26152818 C8.27019149,1.36871713 8.22697827,1.44917384 8.16215844,1.50276831 C8.09706569,1.55649277 8.00854682,1.58309504 7.89596501,1.58309504 L3.7401724,1.58309504 C3.16875718,1.58309504 2.67953804,1.77697966 2.27256048,2.16461893 C1.86562842,2.55221488 1.66225336,3.01801457 1.66225336,3.56227795 L1.66225336,12.2707521 C1.66225336,12.8149288 1.8656739,13.2807718 2.27256048,13.6683678 C2.67953804,14.0562237 3.16875718,14.2498484 3.7401724,14.2498484 L7.79202584,14.2498484 C7.79202584,14.2498484 7.84174379,14.254051 7.94136163,14.2623263 C8.04102496,14.2704716 8.09074291,14.2829062 8.09074291,14.2993702 C8.09074291,14.3156608 8.12535897,14.3384937 8.19472756,14.3672623 C8.26409615,14.3960309 8.29434541,14.433378 8.2855663,14.4784372 C8.27674171,14.5237998 8.28570276,14.5798638 8.31172167,14.6458063 C8.31172167,14.6789075 8.31595202,14.7613138 8.32464015,14.893372 C8.33333333,15.0253002 8.3354662,15.1344388 8.33119036,15.2210479 C8.32682355,15.3073103 8.31376861,15.4045775 8.29211651,15.5116365 C8.27037344,15.6189554 8.22716022,15.6993255 8.16234039,15.7530066 C8.09729312,15.8063845 8.00872877,15.8333333 7.89614696,15.8333333 L3.7401724,15.8333333 C2.70996924,15.8333333 1.82896541,15.4849042 1.09729737,14.7877428 C0.365811277,14.0911879 0,13.2519599 0,12.2707088 L0,3.56240793 C0,2.58107011 0.365811277,1.74205877 1.09729737,1.04524393 C1.82896541,0.348429084 2.70996924,0 3.7401724,0 L7.89601049,0 Z M12.2974136,0.833333333 C12.5170172,0.833333333 12.7071125,0.911620351 12.8674776,1.06767593 L19.7592748,7.77819542 C19.919773,7.93446703 20,8.11972902 20,8.33350615 C20,8.54736969 19.919773,8.73219964 19.7592748,8.88860086 L12.867522,15.5988179 C12.7071125,15.7550895 12.5170172,15.8333333 12.297458,15.8333333 C12.0778101,15.8333333 11.8877148,15.7550895 11.7272165,15.5988179 C11.5667182,15.4426759 11.4865357,15.2574139 11.4865357,15.0437664 L11.4865357,11.4912554 L5.81087797,11.4912554 C5.59127443,11.4912554 5.40135664,11.4127523 5.24068086,11.2567831 C5.08018258,11.100598 5,10.9155088 5,10.7017316 L5,5.96493502 C5,5.75111468 5.08018258,5.56602551 5.24068086,5.40975391 C5.40117915,5.25369833 5.59114131,5.17541131 5.81087797,5.17541131 L11.4864913,5.17541131 L11.4864913,1.62285704 C11.4864913,1.40916632 11.5666739,1.22394753 11.7271721,1.06767593 C11.8877148,0.911620351 12.0778101,0.833333333 12.2974136,0.833333333 Z"></path></clipPath></defs><g clip-path="url(#i0)"><polygon points="0,0 20,0 20,15.8333333 0,15.8333333 0,0" stroke="none" fill="#C7CED6"></polygon></g></svg>