<?xml version="1.0" encoding="UTF-8"?><svg version="1.1" width="19px" height="20px" viewBox="0 0 19.0 20.0" xmlns="http://www.w3.org/2000/svg" xmlns:xlink="http://www.w3.org/1999/xlink"><defs><clipPath id="i0"><path d="M14.4447244,10.9408567 C16.9423425,10.9408567 18.974359,12.9728293 18.974359,15.4704283 C18.974359,17.9680274 16.9423854,20 14.4447244,20 C11.9470635,20 9.91508992,17.9680274 9.91508992,15.4703855 C9.91508992,12.9728293 11.9470635,10.9408567 14.4447244,10.9408567 Z M16.4724481,15.973857 C16.2976006,17.0030869 15.4532417,17.7500864 14.4647291,17.7500864 C14.2542081,17.7500864 14.0471215,17.7149845 13.8500801,17.6488093 C14.0174579,17.5321455 14.1119863,17.3259909 14.0748962,17.1117359 C14.0238113,16.8167334 13.74336,16.6188079 13.4482272,16.6700251 L12.4379069,16.8448922 C12.1213528,16.8993667 11.9170565,17.2349143 12.0127869,17.5412746 L12.2997204,18.5700759 C12.3780218,18.8507633 12.6872352,19.0248589 12.9675577,18.9466401 C13.1415895,18.8981231 13.2714909,18.7698015 13.3298735,18.612464 C13.6877677,18.7575008 14.0721058,18.8343481 14.4647291,18.8343481 C15.9837939,18.8343481 17.2776993,17.7077412 17.5414085,16.1554958 C17.5915489,15.8603219 17.3928762,15.580406 17.0977004,15.5302175 C16.8024817,15.4799003 16.5225885,15.678683 16.4724481,15.973857 Z M16.0043567,6.41025641 L16.0043567,10.0758218 C15.5008064,9.93014212 14.9787968,9.85659509 14.4446815,9.85659509 C12.8747894,9.85659509 11.4536443,10.504589 10.4338369,11.5468054 C10.3478083,11.4893736 10.2445226,11.4557717 10.133295,11.4557717 L9.45137719,11.4557717 C9.14860309,11.4557717 8.90378234,11.7040572 8.90936304,12.008103 C8.91481494,12.3065343 9.17088293,12.5400333 9.4693642,12.5400333 L9.65824922,12.5400333 C9.13374985,13.3935818 8.83084697,14.3972674 8.83084697,15.4704283 C8.83084697,16.0045873 8.90434041,16.5264884 9.05008238,17.0300884 L0.632464323,17.0300884 C0.283155819,17.0300884 0,16.7469152 0,16.3976096 L0,6.41025641 L16.0043567,6.41025641 Z M15.1103295,11.7197438 C14.8649507,11.8348218 14.7467258,12.1101946 14.8207344,12.362466 C14.7030676,12.3485367 14.5842847,12.3412077 14.4647291,12.3412077 C12.7419689,12.3412077 11.3403991,13.797619 11.3403991,15.5877779 C11.3403991,15.887152 11.5831164,16.1298658 11.8824133,16.1298658 C12.181839,16.1298658 12.4245562,15.8871092 12.4245562,15.587735 C12.4245562,14.396453 13.3382016,13.4271408 14.46181,13.4255122 C14.3826929,13.5658773 14.3662084,13.73963 14.4328333,13.8999248 C14.5446189,14.168783 14.871347,14.3048193 15.1415385,14.1924843 L16.0580601,13.8115055 C16.3418598,13.6965133 16.4766121,13.3564654 16.3461956,13.078521 L15.8313122,11.9804158 C15.7042012,11.7093289 15.3813366,11.592708 15.1103295,11.7197438 Z M2.97266388,14.1972417 L2.29074603,14.1972417 C1.99132034,14.1972417 1.74860309,14.4399555 1.74860309,14.7393725 C1.74860309,15.0387895 1.99132034,15.2815033 2.29074603,15.2815033 L2.97266388,15.2815033 C3.27208957,15.2815033 3.51480682,15.0387895 3.51480682,14.7393725 C3.51480682,14.4399555 3.27208957,14.1972417 2.97266388,14.1972417 Z M6.55302239,14.1972417 L5.87110454,14.1972417 C5.57167885,14.1972417 5.3289616,14.4399555 5.3289616,14.7393725 C5.3289616,15.0387895 5.57167885,15.2815033 5.87110454,15.2815033 L6.55302239,15.2815033 C6.85240515,15.2815033 7.09516533,15.0387895 7.09516533,14.7393725 C7.09516533,14.4399555 6.85244808,14.1972417 6.55302239,14.1972417 Z M6.212042,11.038448 C5.70737557,11.038448 5.29822485,11.4475855 5.29822485,11.952257 C5.29822485,12.4569286 5.70733264,12.8660661 6.212042,12.8660661 C6.71675136,12.8660661 7.12585915,12.4569286 7.12585915,11.952257 C7.12585915,11.4475855 6.71670843,11.038448 6.212042,11.038448 Z M2.97266388,11.4557717 L2.29074603,11.4557717 C1.99132034,11.4557717 1.74860309,11.6984855 1.74860309,11.9979025 C1.74860309,12.2973195 1.99132034,12.5400333 2.29074603,12.5400333 L2.97266388,12.5400333 C3.27208957,12.5400333 3.51480682,12.2973195 3.51480682,11.9979025 C3.51480682,11.6984855 3.27208957,11.4557717 2.97266388,11.4557717 Z M6.55297946,8.71434447 L5.87106161,8.71434447 C5.57167885,8.71434447 5.32891867,8.95705826 5.32891867,9.25647527 C5.32891867,9.55589229 5.57163592,9.79860608 5.87106161,9.79860608 L6.55297946,9.79860608 C6.85240515,9.79860608 7.0951224,9.55589229 7.0951224,9.25647527 C7.0951224,8.95705826 6.85240515,8.71434447 6.55297946,8.71434447 Z M10.133338,8.71430161 L9.45142012,8.71430161 C9.15199443,8.71430161 8.90927718,8.9570154 8.90927718,9.25643241 C8.90927718,9.55584943 9.15199443,9.79856322 9.45142012,9.79856322 L10.133338,9.79856322 C10.4327637,9.79856322 10.6754809,9.55584943 10.6754809,9.25643241 C10.6754809,8.9570154 10.4327637,8.71430161 10.133338,8.71430161 Z M13.7136536,8.71430161 L13.0317357,8.71430161 C12.73231,8.71430161 12.4895928,8.9570154 12.4895928,9.25643241 C12.4895928,9.55584943 12.73231,9.79856322 13.0317357,9.79856322 L13.7136536,9.79856322 C14.0130792,9.79856322 14.2557965,9.55584943 14.2557965,9.25643241 C14.2557965,8.9570154 14.0130792,8.71430161 13.7136536,8.71430161 Z M13.8489379,0 C14.1463198,0 14.3874149,0.242725164 14.3874149,0.542156207 L14.387,2.548 L15.2691986,2.54820704 C15.5846294,2.54820704 15.845754,2.78224547 15.8906244,3.08724865 L15.8974359,3.18071547 L15.8974359,5.38461538 L0,5.38461538 L0,3.18071547 C0,2.83139354 0.281263377,2.54820704 0.628237316,2.54820704 L1.51,2.548 L1.51002103,0.542156207 C1.51002103,0.272668268 1.70534258,0.0491120916 1.96119827,0.00709573564 L2.04854062,0 C2.34592248,0 2.58701756,0.242725164 2.58701756,0.542156207 L2.587,2.548 L5.443,2.548 L5.44344416,0.542156207 C5.44344416,0.272668268 5.63873117,0.0491120916 5.89461104,0.00709573564 L5.98196374,0 C6.27938825,0 6.52048333,0.242725164 6.52048333,0.542156207 L6.52,2.548 L9.376,2.548 L9.37690993,0.542156207 C9.37690993,0.272668268 9.57219694,0.0491120916 9.82807681,0.00709573564 L9.91542951,0 C10.212854,0 10.4539491,0.242725164 10.4539491,0.542156207 L10.453,2.548 L13.31,2.548 L13.3104183,0.542156207 C13.3104183,0.272668268 13.5057054,0.0491120916 13.7615852,0.00709573564 L13.8489379,0 Z M2.58697492,2.62034309 L1.50997839,2.62034309 L1.50997839,3.37685009 C1.50997839,3.67628113 1.75107347,3.9190063 2.04849797,3.9190063 C2.34592248,3.9190063 2.58701756,3.67623827 2.58701756,3.37685009 L2.58697492,2.62034309 Z M6.52044069,2.62034309 L5.44344416,2.62034309 L5.44344416,3.37685009 C5.44344416,3.67628113 5.68453924,3.9190063 5.98196374,3.9190063 C6.27938825,3.9190063 6.52048333,3.67623827 6.52048333,3.37685009 L6.52044069,2.62034309 Z M10.4539065,2.62034309 L9.37690993,2.62034309 L9.37690993,3.37685009 C9.37690993,3.67628113 9.618005,3.9190063 9.91542951,3.9190063 C10.212854,3.9190063 10.4539491,3.67623827 10.4539491,3.37685009 L10.4539065,2.62034309 Z M14.3873722,2.62034309 L13.3103757,2.62034309 L13.3103757,3.37685009 C13.3103757,3.67628113 13.5514708,3.9190063 13.8488953,3.9190063 C14.1463198,3.9190063 14.3874149,3.67623827 14.3874149,3.37685009 L14.3873722,2.62034309 Z"></path></clipPath></defs><g transform=""><g clip-path="url(#i0)"><polygon points="0,0 18.974359,0 18.974359,20 0,20 0,0" stroke="none" fill="#C7CED6"></polygon></g></g></svg>