<?xml version="1.0" encoding="UTF-8"?>
<svg width="21px" height="24px" viewBox="0 0 21 24" version="1.1" xmlns="http://www.w3.org/2000/svg" xmlns:xlink="http://www.w3.org/1999/xlink">
    <title>Icon/UI/ic-notifications</title>
    <g id="Symbols" stroke="none" stroke-width="1" fill="none" fill-rule="evenodd">
        <g id="Atom/Header/Dashboard" transform="translate(-1084.000000, -33.000000)" fill="#6F7072">
            <path d="M1097.09959,53.8958576 C1097.52639,53.8958576 1097.90841,54.1605937 1098.05832,54.5600872 C1098.20823,54.9597172 1098.09477,55.4102738 1097.77338,55.6911207 C1095.78833,57.4252173 1092.71254,57.4476086 1090.70565,55.6903015 C1090.38474,55.409318 1090.27162,54.958898 1090.42171,54.5595411 C1090.57182,54.1603206 1090.95369,53.8958576 1091.38023,53.8958576 L1097.09959,53.8958576 Z M1094.23992,33 C1099.11317,33 1102.28864,36.8164052 1102.28864,40.1706486 C1102.28864,44.4648896 1104.47984,44.2397478 1104.47984,47.7396166 C1104.17633,51.2419429 1101.0335,52.1145208 1094.23992,52.1145208 C1087.44756,52.1145208 1084.30473,51.2551865 1084,47.7396166 C1084,44.2397478 1086.19117,44.4648896 1086.19117,40.1706486 C1086.19117,36.8164052 1089.36665,33 1094.23992,33 Z" id="Icon/UI/ic-notifications"></path>
        </g>
    </g>
</svg>