<?xml version="1.0" encoding="UTF-8"?><svg version="1.1" width="20px" height="20px" viewBox="0 0 20.0 20.0" xmlns="http://www.w3.org/2000/svg" xmlns:xlink="http://www.w3.org/1999/xlink"><defs><clipPath id="i0"><path d="M4.46666667,0 C4.92340012,0.0340583816 5.34068529,0.271458158 5.60333333,0.646666667 L5.63864969,0.695317806 C5.96864524,1.15631956 8.48056566,4.74412121 8.30333333,5.75866667 C8.21133333,6.28 7.856,6.57733333 7.14933333,7.17066667 C7.032,7.26933333 6.75733333,7.5 6.56133333,7.68 C6.68419373,8.05711544 6.8339102,8.42494563 7.00933333,8.78066667 C7.90332758,10.6169856 9.3870144,12.1006724 11.2233333,12.9946667 C11.5791094,13.1699674 11.9469307,13.3196803 12.324,13.4426667 C12.5033333,13.2473333 12.734,12.9726667 12.83,12.858 C13.4266667,12.148 13.724,11.7933333 14.244,11.7013333 C15.3333333,11.496 19.302,14.3566667 19.3566667,14.4 C19.7301795,14.6622212 19.9663144,15.0782101 20,15.5333333 C20,16.692 15.7093333,20 14.986,20 C14.944,20 10.6753333,19.9393333 5.32533333,14.6806667 C0.239129944,9.50687006 0.0100928852,5.34669424 0.000409480359,5.03272165 L0,5.014 C0,4.29133333 3.308,0 4.46666667,0 Z"></path></clipPath></defs><g transform=""><g clip-path="url(#i0)"><polygon points="0,0 20,0 20,20 0,20 0,0" stroke="none" fill="#C7CED6"></polygon></g></g></svg>