<?xml version="1.0" encoding="UTF-8"?><svg version="1.1" width="15px" height="20px" viewBox="0 0 15.0 20.0" xmlns="http://www.w3.org/2000/svg" xmlns:xlink="http://www.w3.org/1999/xlink"><defs><clipPath id="i0"><path d="M7.5,0 C10.2575,0 12.5,2.2425 12.5,5 L12.5,7.5 L13.125,7.5 C14.1583333,7.5 15,8.34083333 15,9.375 L15,18.125 C15,19.1591667 14.1583333,20 13.125,20 L1.875,20 C0.841666667,20 0,19.1591667 0,18.125 L0,9.375 C0,8.34083333 0.841666667,7.5 1.875,7.5 L2.5,7.5 L2.5,5 C2.5,2.2425 4.7425,0 7.5,0 Z M7.5,10.8333333 C6.58083333,10.8333333 5.83333333,11.5808333 5.83333333,12.5 C5.83333333,13.1141667 6.17083333,13.6458333 6.66666667,13.935 L6.66666667,15.8333333 C6.66666667,16.2933333 7.03916667,16.6666667 7.5,16.6666667 C7.96083333,16.6666667 8.33333333,16.2933333 8.33333333,15.8333333 L8.33333333,13.935 C8.82916667,13.6458333 9.16666667,13.1141667 9.16666667,12.5 C9.16666667,11.5808333 8.41916667,10.8333333 7.5,10.8333333 Z M7.5,1.66666667 C5.66166667,1.66666667 4.16666667,3.16166667 4.16666667,5 L4.16666667,7.5 L10.8333333,7.5 L10.8333333,5 C10.8333333,3.16166667 9.33833333,1.66666667 7.5,1.66666667 Z"></path></clipPath></defs><g clip-path="url(#i0)"><polygon points="0,0 15,0 15,20 0,20 0,0" stroke="none" fill="#C7CED6"></polygon></g></svg>