<?xml version="1.0" encoding="UTF-8"?><svg version="1.1" width="24px" height="20px" viewBox="0 0 24.0 20.0" xmlns="http://www.w3.org/2000/svg" xmlns:xlink="http://www.w3.org/1999/xlink"><defs><clipPath id="i0"><path d="M0.801770722,0.547896624 C1.46950585,-0.0103904794 2.39111626,-0.154217768 3.20688281,0.172732399 L22.5706859,7.93270583 C23.4523588,8.28595869 24,9.0781632 24,10.000025 C24,10.9218869 23.4523588,11.7140461 22.5707328,12.0673443 L3.20692968,19.8272724 C2.39256939,20.1535888 1.47086523,20.0115271 0.801770722,19.4521082 C0.13398872,18.8937758 -0.14524597,18.0334378 0.0730042759,17.2068723 L1.79655309,10.6791416 L10.2352814,10.6791416 C10.6236412,10.6791416 10.938454,10.3750535 10.938454,10.000025 C10.938454,9.62495137 10.6235943,9.32090854 10.2352814,9.32090854 L1.79655309,9.32090854 L0.0730042759,2.79313251 C-0.14524597,1.96661226 0.134035595,1.10627427 0.801770722,0.547896624 Z"></path></clipPath></defs><g clip-path="url(#i0)"><polygon points="0,2.77555756e-17 24,2.77555756e-17 24,20 0,20 0,2.77555756e-17" stroke="none" fill="#C7CED6"></polygon></g></svg>