<?xml version="1.0" encoding="UTF-8"?>
<svg width="24px" height="24px" viewBox="0 0 24 24" version="1.1" xmlns="http://www.w3.org/2000/svg" xmlns:xlink="http://www.w3.org/1999/xlink">
    <title>Icon/Dashboard/ic-send-message-active</title>
    <g id="Icon/Dashboard/ic-send-message-active" stroke="none" stroke-width="1" fill="none" fill-rule="evenodd">
        <path d="M4.77670068,4.9194566 L19.5048029,4.03543246 C19.9388299,4.00929559 20.3528113,3.98436589 20.6769749,4.01223045 C21.0087802,4.0407595 21.5387163,4.14611544 21.8366323,4.66210813 C22.1345482,5.17810083 21.9607824,5.68972999 21.8195769,5.9913893 C21.6816938,6.28606033 21.453107,6.63208586 21.2134452,6.99491209 L13.0838829,19.3077463 C12.7569506,19.8029071 12.4649043,20.2453511 12.2026497,20.545482 C11.9716263,20.8099517 11.4825568,21.2990212 10.7829526,21.1285778 C10.0833485,20.9580237 9.87414278,20.2986215 9.79074846,19.957624 C9.69605769,19.570444 9.64035073,19.0432767 9.57799879,18.4532037 L9.01654346,13.1449833 L14.4140944,9.90655903 C14.8074764,9.67044124 14.934949,9.16027397 14.6989419,8.76690305 C14.4629349,8.3735432 13.9527122,8.245982 13.5593302,8.48200013 L8.26570659,11.6581721 L3.76384173,8.38285723 C3.2840198,8.03384146 2.85533088,7.72201535 2.56741558,7.44642646 C2.31375507,7.2036194 1.84732275,6.69282085 2.04945155,6.001689 C2.25156926,5.31055715 2.91972061,5.13156392 3.26422887,5.06369666 C3.65526298,4.98665935 4.18442378,4.95495179 4.77670068,4.9194566 Z" id="Path" fill="#92CDD2"></path>
    </g>
</svg>