<?xml version="1.0" encoding="UTF-8"?>
<svg width="24px" height="24px" viewBox="0 0 24 24" version="1.1" xmlns="http://www.w3.org/2000/svg" xmlns:xlink="http://www.w3.org/1999/xlink">
    <title>Icon/Dashboard/ic-sent_campaigns-active</title>
    <g id="Icon/Dashboard/ic-sent_campaigns-active" stroke="none" stroke-width="1" fill="none" fill-rule="evenodd">
        <path d="M3.30174444,3.30174444 C2,4.6035 2,6.69862222 2,10.8888889 L2,13.1111111 C2,17.3013333 2,19.3965556 3.30174444,20.6982222 C4.6035,22 6.69862222,22 10.8888889,22 L13.1111111,22 C17.3013333,22 19.3965556,22 20.6982222,20.6982222 C22,19.3965556 22,17.3013333 22,13.1111111 L22,10.8888889 C22,6.69862222 22,4.6035 20.6982222,3.30174444 C19.3965556,2 17.3013333,2 13.1111111,2 L10.8888889,2 C6.69862222,2 4.6035,2 3.30174444,3.30174444 Z M17.4166667,10.1944444 C18.0303333,10.1944444 18.5277778,9.69697778 18.5277778,9.08333333 C18.5277778,8.46967778 18.0303333,7.97222222 17.4166667,7.97222222 C16.803,7.97222222 16.3055556,8.46967778 16.3055556,9.08333333 C16.3055556,9.69697778 16.803,10.1944444 17.4166667,10.1944444 Z M15.3318889,10.2005556 C15.5315556,9.97222222 15.6314444,9.85811111 15.7274444,9.85466667 C15.8234444,9.85122222 15.9636667,9.99 16.244,10.2676667 C16.2924444,10.3155556 16.3437778,10.3606667 16.3978889,10.4024444 C16.7104444,10.6442222 16.8666667,10.7651111 16.876,10.8606667 C16.8852222,10.9562222 16.7853333,11.0703333 16.5856667,11.2985556 L14.5121111,13.6683333 C14.0155556,14.2358889 13.1568889,14.3034444 12.5776667,13.8207778 L10.6192222,12.1886667 C10.4617778,12.0575556 10.383,11.9918889 10.2928889,11.999 C10.2026667,12.0061111 10.1352222,12.0832222 10.0002222,12.2374444 L6.93271111,15.7432222 C6.62964444,16.0895556 6.10317778,16.1246667 5.75681111,15.8215556 C5.41044444,15.5185556 5.37535556,14.992 5.67842222,14.6456667 L9.21017778,10.6093333 C9.70671111,10.0418889 10.5653333,9.97433333 11.1445556,10.457 L13.103,12.089 C13.2604444,12.2202222 13.3392222,12.2858889 13.4294444,12.2787778 C13.5195556,12.2716667 13.5871111,12.1945556 13.722,12.0403333 L15.3318889,10.2005556 Z" id="Shape" fill="#92CDD2"></path>
    </g>
</svg>