<?xml version="1.0" encoding="UTF-8"?>
<svg width="24px" height="24px" viewBox="0 0 24 24" version="1.1" xmlns="http://www.w3.org/2000/svg" xmlns:xlink="http://www.w3.org/1999/xlink">
    <title>Icon/Dashboard/ic-textwords-active</title>
    <g id="Icon/Dashboard/ic-textwords-active" stroke="none" stroke-width="1" fill="none" fill-rule="evenodd">
        <path d="M11.9491782,3.09776128 C12.3108947,3.09890129 12.5008369,3.1091614 12.5870373,3.20150237 C12.6407552,3.25906657 12.6719181,3.33451129 12.6746421,3.41318127 C12.6796543,3.55517949 12.5180649,3.71675803 12.194886,4.03991511 L12.194886,4.03991511 L10.2772781,5.95749033 L10.0496692,6.18517452 C8.87151161,7.36436323 8.25734152,7.99606182 7.81778441,8.73360342 C7.49872426,9.26896242 7.2493339,9.84287188 7.07566067,10.4413848 C6.82143243,11.3175417 6.78907096,12.2562423 6.72432622,14.1336435 C6.68291007,15.3348316 6.66219655,15.9354257 6.90879751,16.3794425 C7.07482167,16.678432 7.32129187,16.9249022 7.62024868,17.0908501 C8.0642873,17.3375382 8.66488135,17.3168356 9.86605857,17.2753214 C11.7434598,17.2105984 12.6821604,17.178237 13.5583173,16.9240305 C14.1568411,16.7503464 14.7307397,16.5009342 15.266066,16.1818959 C16.0497148,15.7148882 16.7139422,15.0507698 18.0421791,13.722424 L18.0421791,13.722424 L20.1176717,11.6469313 C20.2669486,11.4976545 20.5222446,11.6032379 20.5222446,11.8145136 L20.5222446,11.8145136 L20.5222057,13.2833778 C20.5209979,17.1409273 20.4823512,19.1078408 19.2456554,20.3444311 C17.9691751,21.6210204 15.914494,21.6210204 11.8053498,21.6210204 L11.8053498,21.6210204 L10.7157379,21.6210204 C6.60655008,21.6210204 4.55196706,21.6210204 3.2753996,20.3444311 C1.99884304,19.0679508 1.99884304,17.0132697 1.99884304,12.9041255 L1.998882,11.4352577 C2.00008968,7.57767416 2.03873543,5.61085007 3.2753996,4.37417534 C4.4721816,3.17740357 6.35276632,3.10260533 9.96903091,3.09793044 Z M14.0618269,4.15966346 L19.8403655,9.93820202 L15.9756212,13.8029463 C15.2571312,14.5216543 14.7939372,14.9850662 14.2387799,15.3158724 C13.8602488,15.541531 13.4545863,15.7178302 13.031381,15.8406295 C12.4107381,16.0206333 11.7559903,16.0430793 10.7403631,16.0779469 L10.7403631,16.0779469 L10.6006749,16.0827412 L10.3594501,16.0907481 C10.1243034,16.0978119 9.90841723,16.1009377 9.72103123,16.0901506 C9.45235474,16.0746781 9.15712441,16.0280427 8.87171148,15.8695042 C8.56023503,15.6965828 8.3034571,15.4397612 8.13048122,15.1282412 C7.97197538,14.8428719 7.92529641,14.5475871 7.90983482,14.2789977 C7.89546284,14.0290408 7.90584684,13.7285258 7.91723328,13.3991362 L7.91723328,13.3991362 L7.92202758,13.2596658 C7.95686247,12.2440386 7.97933026,11.5891819 8.15941041,10.968539 C8.28219877,10.5454427 8.45851977,10.139693 8.68408032,9.76120547 C9.01491916,9.20608092 9.47832019,8.74285423 10.1970827,8.02439686 L10.1970827,8.02439686 L14.0618269,4.15966346 Z M20.8032555,3.19677346 C22.3341602,4.72767812 22.396268,7.1711436 20.9896881,8.77616366 L15.223789,3.01028639 C16.8288963,1.60370644 19.2723508,1.6658688 20.8032555,3.19677346 Z" id="Combined-Shape" fill="#92CDD2"></path>
    </g>
</svg>