<?xml version="1.0" encoding="UTF-8"?><svg version="1.1" width="20px" height="20px" viewBox="0 0 20.0 20.0" xmlns="http://www.w3.org/2000/svg" xmlns:xlink="http://www.w3.org/1999/xlink"><defs><clipPath id="i0"><path d="M10,0 C15.5214395,0 20,4.47856045 20,10 C20,15.5214395 15.5214395,20 10,20 C4.47856045,20 0,15.5214395 0,10 C0,4.47856045 4.47856045,0 10,0 Z M10,3.57141624 C9.60712867,3.57141624 9.28569373,3.89285118 9.28569373,4.28572251 L9.28575129,10 C9.28575129,10.2178781 9.3857392,10.4214229 9.55359456,10.5571577 L13.1250108,13.4142677 C13.2571192,13.5213935 13.4142677,13.5714162 13.5714162,13.5714162 C13.7821564,13.5714162 13.9892702,13.4785662 14.128574,13.303573 C14.3750036,12.9964138 14.3250384,12.5464394 14.0178792,12.3000098 L10.7143063,9.65715141 L10.7143063,4.28572251 C10.7143063,3.89285118 10.3928713,3.57141624 10,3.57141624 Z"></path></clipPath></defs><g transform=""><g clip-path="url(#i0)"><polygon points="0,0 20,0 20,20 0,20 0,0" stroke="none" fill="#C7CED6"></polygon></g></g></svg>