<?xml version="1.0" encoding="UTF-8"?><svg version="1.1" width="16px" height="20px" viewBox="0 0 16.0 20.0" xmlns="http://www.w3.org/2000/svg" xmlns:xlink="http://www.w3.org/1999/xlink"><defs><clipPath id="i0"><path d="M8.02717704,0.171621263 L8.38983224,0.534473179 C10.059436,2.20498262 12.2793278,3.12498352 14.6405102,3.12498352 C14.9639289,3.12498352 15.2261307,3.38732753 15.2261307,3.71092159 L15.2261307,9.55553668 C15.2261307,14.2535881 12.2433317,18.4380844 7.80378237,19.9680859 C7.74201894,19.989375 7.67756165,20 7.61306533,20 C7.548569,20 7.48415075,19.989375 7.42234828,19.9680859 C2.98279899,18.4380844 0,14.2536272 0,9.55553668 L0,3.71092159 C0,3.38732753 0.262201778,3.12498352 0.58562041,3.12498352 C2.9468419,3.12498352 5.16669463,2.20498262 6.83629842,0.534473179 L7.19899266,0.171621263 C7.42769695,-0.0571680233 7.79855083,-0.0572461484 8.02717704,0.171621263 Z M7.61306533,4.68748505 C4.70686548,4.68748505 2.34248164,7.05315142 2.34248164,9.9609277 C2.34248164,12.868704 4.70686548,15.2343703 7.61306533,15.2343703 C10.5193042,15.2343703 12.883649,12.868704 12.883649,9.9609277 C12.883649,7.05315142 10.5192652,4.68748505 7.61306533,4.68748505 Z M7.61306533,5.87939698 C9.87135056,5.87939698 11.7085427,7.71662814 11.7085427,9.97487437 C11.7085427,12.2331206 9.87131156,14.0703518 7.61306533,14.0703518 C5.3548191,14.0703518 3.51758794,12.2331206 3.51758794,9.97487437 C3.51758794,7.71662814 5.3548191,5.87939698 7.61306533,5.87939698 Z M9.5396559,8.39101675 L6.8329744,11.0976983 L5.68651376,9.95119861 C5.45802513,9.72274898 5.08755994,9.72274898 4.85911031,9.95119861 C4.63062168,10.1796872 4.63062168,10.5501524 4.85911031,10.7786021 L6.41929218,12.3387839 C6.53349749,12.4530282 6.68323594,12.5101699 6.8329744,12.5101699 C6.98271285,12.5101699 7.1324513,12.4530282 7.24669562,12.3388229 L10.3670593,9.2184592 C10.595548,8.98997057 10.595548,8.61950538 10.3670593,8.39101675 C10.1385707,8.16256712 9.76810553,8.16256712 9.5396559,8.39101675 Z"></path></clipPath></defs><g transform=""><g clip-path="url(#i0)"><polygon points="0,-2.77555756e-17 15.2261307,-2.77555756e-17 15.2261307,20 0,20 0,-2.77555756e-17" stroke="none" fill="#C7CED6"></polygon></g></g></svg>